<mxfile host="app.diagrams.net" modified="2023-12-15T10:26:17.088Z" agent="Mozilla/5.0 (Windows NT 10.0; Win64; x64) AppleWebKit/537.36 (KHTML, like Gecko) Chrome/120.0.0.0 Safari/537.36" etag="SPSTJioQ7_4QUS9_0iDf" version="22.1.9" type="github">
  <diagram name="Page-1" id="OZaMXYLUobjWBVZuyJfw">
    <mxGraphModel dx="1059" dy="549" grid="1" gridSize="10" guides="1" tooltips="1" connect="1" arrows="1" fold="1" page="1" pageScale="1" pageWidth="850" pageHeight="1100" math="0" shadow="0">
      <root>
        <mxCell id="0" />
        <mxCell id="1" parent="0" />
        <mxCell id="W2GJoQNL9k2O-XemkFUo-6" value="" style="shape=actor;whiteSpace=wrap;html=1;" vertex="1" parent="1">
          <mxGeometry x="40" y="70" width="70" height="70" as="geometry" />
        </mxCell>
        <mxCell id="W2GJoQNL9k2O-XemkFUo-35" value="" style="edgeStyle=orthogonalEdgeStyle;rounded=0;orthogonalLoop=1;jettySize=auto;html=1;" edge="1" parent="1" source="W2GJoQNL9k2O-XemkFUo-8" target="W2GJoQNL9k2O-XemkFUo-9">
          <mxGeometry relative="1" as="geometry" />
        </mxCell>
        <mxCell id="W2GJoQNL9k2O-XemkFUo-8" value="" style="verticalLabelPosition=bottom;html=1;verticalAlign=top;align=center;strokeColor=none;fillColor=#00BEF2;shape=mxgraph.azure.github_code;pointerEvents=1;" vertex="1" parent="1">
          <mxGeometry x="45" y="230" width="70" height="70" as="geometry" />
        </mxCell>
        <mxCell id="W2GJoQNL9k2O-XemkFUo-9" value="" style="shape=image;verticalLabelPosition=bottom;labelBackgroundColor=default;verticalAlign=top;aspect=fixed;imageAspect=0;image=data:image/png,iVBORw0KGgoAAAANSUhEUgAAAOEAAADhCAMAAAAJbSJIAAABRFBMVEX////ueUvm9fjQ6PDpZUvsb0i2z+rsdEsBAQHueEn1rIfudkbueEvtdkuyzOntcj/++vjP7PXH3O/pYUboXD/pZkvvhFu60uvtbzri8vfW6PPtc0LN5+/oWDn5/P3N3vDrbEvS5fLA1+3Z7fPu+Pr87Ont8/r52tXwjWjymXrvgFTnVTXzr6T2xb3tiHWZmZn86OH2vKjzo4f0rpbj7PfV2NnsemXj4+P1vbTAwMDvlYbyp5r51cjqbFP3xrf518viqZbdu7Dmm4HT3+PnlHbgsaLaxr/WzM1qamqoqKjfckb1s5ztajDct6/taD3ZyMHzoHrepZ7gl4zvkYE9PT3fnJPthHLncVtubm4bGxtLS0vjpI63XTl4MxOeSSTRaUFqWFM7GAZyMxdsNyKuWTeHh4ccDgknJyeDQiqYTTApFQ3GwMtfmehJAAAXWElEQVR4nNWd+XvaVrqAITFgFbAAYRBogIDDGtvBGJzExnYS2jiJk7RNpnabzkxvb6ed9s7///s9i87RWcVigZTveZo0Agm9+tazKhbbhNQ743GzUWiVy+VkMlkut1qNRnPc6dQ38uvrFcDWaCV3gCQFgcd2ygUA+uVy1jEcS8QKPVwuVDth3+sK0qkSOvhnudBoVqt7lUrl3r174M9qtdkERgs+dDGTjfEXpcpOs+zSAbZmFWKppVJtAk73QRS+FMj6uIXwdpKthg+cJ3vNQtk9o/EFmGunkcQ3W1iIzqN0H0u5Gm1Fdlqu9qpL0BGLbZaxtTaiyzguI75WcxntcZoswCsAxmga6xjpL1nYWxGPKBJdJYJ6RPYJQsWq6vOkip9UI2wiXuoNzHdnPCR7LeTM47CpGGmivB2A/oggPe60ouKO2EALwfEhRuSP0TDVJuQr3ym+KKWB0mP4aqyjuNAMnA9IBdlGNWTAMUqAwRqoJ0109VATBwqhCgU+fBgMIlJjiJaKLFThgQ/hhwExIjWGlTc6sH1XUNwV/lhArOxhuY//wk3FBaQKfyWcmNpJqi0UqxAIw3ZfLQB0PiK01J1CCIBjGEOVTQgSGTCdBo7BnEtZAIjljcebKnRB9b2Re6ksgLcYJAxom0aEaV6bJFzABfEWgWxuHBEBKrRXr8O/kCPe+9tShHMYockkN4gIAHdkQBxh7qHQUrm/LCAUH8ZqcpNaHCsB3Z9/uLD3LccIETelxbHKREmKWNL9lmCsbswXO76A9VWskxNtK6UKTWcDgHXoEBoLBTZ6Vz4/Roi4/uqmXlbkQfrh3p01iBE1pgojXHPdhKC+SArPmFrovUDwMKMaEVY3a25pwKdYVQMGpUBfxNa6A2oHeoIacCEPzLuyyHeVlloBTrLOaAOdsMX/JC1C5ykQcM0mV6/ev3//4tXVZLYApxKxmlyrKxaAjVSUgP4WCmgmL172BmnT/oAlVXr5/moepNJSm+t0xbHkhC5gfY72Js8Hppk2jDiQbAILwEy//Pa+L6MSEbrimgDrO2KT/uECgPnZi57tIDgsmQSVDx/izyd+ilQhVtbX5i+Iqd4F9Isx+fvfDEwGT0AEkM7LyZKI1XXZKbTRveUA8/kXEp+ImPhgvpzpGVWIwE7LawCEcZS3URdQH2Pyk5It80mIiQ/2C72pKhAr64mnIIbx1ZoLrue7/1yhPyViwu7rTVWRNGA8DTzv15NCHK3PA5z1TA0fE1GpGK+WQSyvYdBGDDOuE+5pAa+MtB4wHk+JiPZzLaJMuIZg81AIMwRQ54T5F1oLVdspQHyptQcZETzwgLtQC0K5ho9qe5sYQB2oZKcJ+2sdoRxt9pIBK7EjtJlcJ9QD2oTPGMTTakiJMGF+rTNU2RWDVmKBzxSujeoeOQU04t99BaSnRJSVmDBf6hAlwkqwngiHKFgV4qO65kT+yi3SjPhXWL5TIsqE+nAj22mwSmzscF6IbVSb6mfE99LfuYRqLSqUmLB1SUOy070gc2JdaFPgo1ob7blpwhh8RUWlQzmcQkPVVXCSElsBFuCgImVzIX5yWhv9hiR6o+cRllRKVBE6vUXtFPafBqXEMj9OiI7pipn8hLaU5hKqzDRhfrOonZYDGxyGqYK5/BwV9mgpY5Q8woGK0FARJozZgkoE1WlAXTYNPlWgY7pU6GVCKBRQHUyVZppwdClDVGIlqKwPa27m+WEV7mmM9L7BsHhKVKpQUZzieKppZ0hKbAXUiOrwcQZTzw0zSNI9Hy/UOWLC0ZU2ohJBrAmkJQyMlOkixeWMdoBJUJYR7/V6JW1tqswXUInqi0tKDKaugW175tL4mNYLpSahYRj6RoaG0Pl5QSUWAjFT3khdFeoIv/ZtE8qiJkwMNBYiKrEaSDQFFRsTSXGc0dnoxFkOUEdo6mo3gbASyChGmavY0CFdRSrEmdUJF04YrQCSPqxJRSPd06iQyfYLijpdLG6mIOnfuTYdc80KfyOd2fOZFiO0rxYz0yAcscnNT0eHtEb6alkj1VmpvjgVlHg3R6w3C41xrMW6oX8yzD9fNtBodah1RNFMYROqUWiuRFmH65d2Gtx4GibUGenybqglTJcW7M5o4NV9KymyRRZ7MtkQXUff/6TpclqBMGXrHqMQTavuQs1VOjToslYmG6IPtF2Is6XdUFOYJvSFm2ime2Qp6gqEdMGuGGj2dI93EiShLpiKZkru8g6EUqDRAeavMGEmm4KSzSxJ+AAKDabaYQyBsBwAoWcX2A11hLOXINCkHuzubmHZ3X2QWpDQOwmehQhfLNg53Lo7IRNKEaG+E9HIPtgSZPeBvyazCE8+y4dQcMTC3QmZUIqO6wJN/kriQ+LLmFXwIfkQIqEu339vKW8VaCThQ6jm29qyThYMNQEQthYJpfnZTRHfWbFYe/ToUa1WZIAf6ABTFNAq1tB5RXKeVfx+odI0AEIvHeobFvkrC91Y0TrZv2znYrHc8ODs1oPczSoBExTv/OxgCE9rX+6fWPhZbdU+qRHXTqgCfIVuqri7P2Sv0D21LD9E128t67TLntbeP8eMxUMlYSVowgZPqEgW+St4R1btLCdeo31Y0yO6GqwdDsXTcmdY/cVPmyBk+vM1hPkJ0sS5dKNQDoip7ko+6Brogeq04TlG/Kgw1DUS6uruEwtalOYy7r1K4Saz5fNcgBwiS629lxH3Nk2Y/74I7Ul7nTZB5AucXQzY1p73Cfv2LHzCCbgT60ZyQQaR2Cmb+rETWjoNQrmB51mnkhI3TZg/BDey6wMYi03d8J8QVVic+p2Ww9+RMv+mCScgWtZ87zQWO3MRM7wKi2f+p13CQGxJWXHDhPmP1palizJEcluiEnEt46t5INA8topiW3jthPzPzc6BCkVvmjwRDuwX+YyBMkVxX/jWk4lwYAiVKFVvQRMmffMhrGYEFT55vQ3kMXcsV+PNFFUzNV6Fj+Fpr/lng5R4vm5C36oNGimfs59sY3nNXeyTxZnpLoqS3Ddeu+dxiAdQ9zXBTAOv2vwrb5DtLS6n/d29U16LB0U262eRkXIP5jE57e/sUZRoikLWD5yw5Uc4A4An7FmTbSrcrXKOiN2QezDeaZwzwnLJ+mHNhL4tYJAreGt7490qa2+5czbpo1xxzrrhE++0N+zlTiHhIU94L3DCCk/I9mLAQMOHxDcaZdxYTKiBgca6YT/WEaIgfLtmwqRA+FAkfMqe9cy7Va6j3Q01WY+Qq2Tr3mnP2ONPi3IwDZzQrzcx/74oRAzPoX7kDp9aTPX9QA6lPyrdF0eoXT/CAHoTmR5hafRQ1iFV4k98Zpujw9iTn1QqVOlQ6GsLoEdYbOSzwRS27sXS5Bm6189CWTPHDwHiZ/RceEDkh9atH2EyAMKWQMiGGimWAqk/e/xYrL/mxVIok8ePn4mDZIpYygOSkZk7EYrpgq29Z1tCPtRIuyblw5q+8esJ6j74wYewGgSh2K3P1W03Yk2jFr6mycg1jVoUNY2my3sVQjp+KIUaJufnf7DEUKMUVV2q7/igggLNo9kCgWaV8cMC3je1IFemTEZEbYubOVfStC0ezWseuvGJDzR8zVYhgKuMAdfLO2gXyh3JEVkzRe3Drv+VaCNfaB/OaeLHYl1F+1Dhhivvz1MfNxodNGNIdETWTD+KtbdCSF+U0Maf68AnchtfMFI4b7LTuOMexIrpJg/5fLFVmxM03IKG6RRG+ULKM4IcoH6aUx8jDWTWF5wyJM5V4MoalLJ8tXFQE1XoKtH/yWDNC31tPGAwM/fgPHbvmvh6bNKfwbLjxCdqdFX9+m6fvo8H57CNfvQraAKay15mt/SSVzzhPm99l3Db8unz1ncJ5/CApDVjAddipOJUfXyMm0IL+4u0WuxuqcctsliJOi3mThDgo1d+7Yp7AS0M4vOFYl3eDI5MaO51nw6vxQXBdrpVE/sU2eci9iSux0iVc2g5JeYnyBBrp1K86Z4UCaA8X8FFLJ5Ij6Z96g6RioNr6zFS9Txorts0f4UeuTiYe3BIx7mVY8DuEKlVPDxgTZwOHRdPeT7F1MuAVq/xq4LcWMN5Yn6Ch9Cs4vnpQbeda7cvn36ymHF8BZ+nRXCadfi02wbndQ/OzslpNWl4VFBhI7gViC1uZZf72Ljfzt//VCN3W6vBqRgLzcXIMnMx3PPIaZYlDY6Kc0uDW9klrs7DB4W5Ufn35wwTK7t+c7/Us4zgmLK8NEieeBnc3hH8bgOuEvf4389PNHOifPigpSrPshQD+IrpwcFtHdHkV8nig+KchdkgI03h8psPRU1VPivlKNYDC4DVQHeOgHu0ScvXpDl8cM1Tik5Ug5MM1ROFVIrc9c5KgcTiyDPZZRUGunFEI6lQorijAlmhls1mU+C/BelcycBpqdmMmzYVUxMFwL2A943o8Gudyf5evCOql92vJDKhvFom4L0/BCWS/aG4pLj8VH09oThFWFrTBYLfQ/9bXlLUC9a5eLr0wjUfkaZ5C4DBqxCVbmxOVGzekn8ZIOHEb8xwPVtF1YWtreUh7/zPSy+Z0RPOfG0UljPBb/c15tesI1fki9PlFwVpJT3zBYTbGAcOiNr60gbsnJUuvfpQK0acIxR/tbKmjeg78raXHKJiEfDKhCWWUNpMobWu3SEbXJ+UhLjC4jwtYc8PENposJmCCKzd5BcFeITfBkaYZgglJ1zTbm1I4K578qsCKOGVhvAfPuvVNYTengPy1jvl9ey4h6WxI+7uySJqVnYZ/3ylRxyoCekCSxmwsd6NdsuKfaApomZ1nvHPZ+24uhiwp2/9CWVAmOvX+UKPjrTBJ4uoIfzX41i7p8qV9nVdvTaabKogA1ZWHElbXNSuiCNqXkP4jx9jsdxI2iPSsI9jEw0hah7+Tb2d4Lr3ZW+osiJGzGvc7Rc0R+Yi7nAfp82jWOyN+qHgpdwKwFbQG9GppJWUNvR2EfOaXWje4kkyueu4SVYKG47Zh0MW/6P2T9Q8lH8Dbee9/rfqwL1OFAH1XkXbBDZ+/YxPzV30TdsEYg9GqO948r/qM0DzULUz60a2ZI+hpqL6/Su6BqLxmzfTKTecXlxMSff/67/UhPaV6vrNjWyrD6WjQ9Q0EI1/b/+kHJl6tv2L8oS4+URx9U29GgHKWPOSGV0D8e329mdFAJxsb6u/H08rCOGkhE0BYkRF5j/SEBq/qhCfbW//pnHcuEwI3921yXfpjJWGqmsgAjPd3v7pirtCHc63/LeGcCARbv5lQWPVG9e0DcQMmlj5+YrcYn3yOzzwh7pmA4QiIMzCm36HnuqVXVMdofEnnjz6n9e/v3nz5vfX/8H//FNTkBslAbAQAiCOqEIB9612B5632yrRqBA0gHnAsF68Jr86b6glNP5SAGqSIWwAs1fdS4b28jz4+kPu/ZVPfHZR+lUC/FX73fTXbIxJrveNFv7S4J3Rj1C2U022h4QvORdMhvlm4PEOZ6k+hMYvIqC+a8P5mVoo9ITNvxiQlQ58bW+ZqNGvQ8b45Q+G7w8fwLhz5CWJsFzQE/y+avd1x5rmk4v49jcK+Ntbv2+aF+hq+KXHEXh39RhNd0dqnDOCaPzy5//BEPOXnwIh4QtwrQqcwh3yq3KJ1Avkrc5zRxCRGc/tXDRf4RAaCQViGZexqQY0gmh+iwx0pxEJBWKpN9GE64BGEM3/RurN6q4gU/0YCGHW/G9yJzoG6kmnAAgX2eBrDl8qZZaToRUx/tL56Cy2iZle0FZo5mr7IG5Cjh1wf3dAzOKt3sywOfQySqA7XJHR3coulUqHzaGVA5cwteyEKI4vlRqEDaKV2yOH3uWSemT4UtnI6nBam3qESzFmUtx5H+bslRKa3FqX6WxqacYMdw6cbpu4DRtFLftFqxs34tztpuY5pICHH0pK2vYkEjItblld2HwS7jmV0aoykxW+6z6PxEILTDctcKskq4unmKZEyUqUGVF5rL4T8zZY2rzkhmiqvjV0G4iK24cErqg+4+wZTv2unQ7nrzHdiOSGB6c35zW83GLYJ6V3Ro2hE77WQ5Pbrdr5zenTkDGH3f3D22KR7o5otfte4yIzWIqP7QAh0/ctq1i8Pdzv+u15tj7JHXzarcHtOCkfuKHcyCM0eobaWJXmafQUhOCKFtwstHZ+ehCOLuEqnv3Tm9vzc6DIYu1kGBsx42t9Q+uRsnWmGe0btzWItnt+e3J49nTaXWRrgjWD5trDs09ncGT+mBIaJc8npawA2fj4mj72CO329Oz0tNvORSTUcOKNkRq9kdDgB6AZGEozGUWGdJjRVTuKZEQu6Phaui8S+opz4T2byBbeUBjC0fEyhOmp96qv6DaegFx6hMfXy0z7Tl/SWGqUwqbwky4ldK49Qm1nv0FfdZXu0pdCpXthU/jJkFI5RyR2GAPdK7viRp/MAjOG9DGk+2FT+AlDeEEJS9rhjDSJRobR9ghHYVP4SZuOSZhTStjr62KOQyzZiOeoop3jsCn8JEe9ybwk8d/Q5w2aBQEhVbRzHTaFn+SordlDkjnSfW3eoFkQEFJFO0dhU/iKR9imhCNt3jBJdjEGXtFuXoQN4SvUm0yPUJ8Z7aFHSEvaiBPSN+UaOULoXOtm9AFFk5c/D3L0S+Zl2BC+QrwJ3DIlPNITxghhiX49bs/ddipUoQmuFCOz3MwLH0Lyfmvv68B0w4bwlWOaBD3CqZbQJJEJENKS1gy/xesnJKiA0osSdi90M2vTsR4l7BKDNaJN6CVBj3B4oZtZaxC/BSof0jfOR7kBzBCOqNk5esI48VtAyITVsCF8hSgOFJeX7i2n21rCAbFq0GLKeWE1bAhfoYq7JoTA6nRzhwHhESUkiSPazcMYjRegMHH/F1idlrBErBpiuSuGot08jNF4AQiHhDC2AGGflrRRJyTxwr6khEyqkwmnHqGbOKLdAI7ReGF2KWGPJ2TWxYKPXFOGhG7iiHYDGMg7l3BICMHNc4Tc0AbzJZI4ot0AjnkR0SMcMT1wwCsZp/RyBCR0C76IN4BjMdyNAUsv1yWB1TGE6X7bVhGO6IhAxJuHpAkMSy9CeMQSOkdeRwfUnNuxgwjxt8yIjW9LgpvAsPRy1QPzhkcImrdez5uXIyChmzjsaDeASUSEYw+EcMr0ooJWPTMC5+UIZ0QLPjPaDWASEeHYAyG8ZAhBrc3kfy9HwBRBCKPdAI7lcO0FqzCX0O4yhJCJ+deIJRzSyBRl6bphBCU1nBrtITeawfapQkI8Lg6xcm5/uTmKbOMid9EjGyegvpZ3xPM8QhQo6ZoF6H3YK9ETIZMAHPs4ipbavuinTXrrqHp2rRTkDUpowx4KGmocmgUR4ZBuuuDYpetupDR5ed1Lm96b1R3cTMeE7wA9IcetW9oghraJ/4ELmQtv7wzDMQf9i2j02AyB8myARyTt2H0ESGIpJDS8QOO1sFhCHF6mhumkmQuZg+NpuKrMTY9L8cGgxEivf+06EbY/lBkJoVtVs4S4J4B0zuSmox57tRJoifSPQvTKnCz0s65DczmJkqQiI4MbkNDVr9Nf7KoRkiM3bLwbMoQO1gYJNUilfbdJ0Yti/NRK+yhtuskNOhghJLbojdnEPCdN2/2QfW5BaXePRiWbDEfYqEuCEJJuNBJqsFsO46Sf3Ez3jy+iMq1UJRCuB+Kq4zYRHXuA23pD1iqB5LyOcXTeyHZTDYifpj3oHU+jh5m7POrH7XfvbLTBDpJ075q0g0ixYpOmH6lqSJUNyoUBPdG0wYXMEtBmGCQaybXbbX30OyIDvQY5ckGPMDldjJ/gmhtEuIMM+3Rg0OufoEPF6YvI2eNykpv2HToDgekIHZpkMpQ5uI6SNS4lwDd7Ji3GDZPryx56HzhmfBQpn1tIcqAWB0HVm1HpiJ2E7Z7NfGraaVCcfSkGm+teg7jqbT8H00Za0eKb9mymPWKkTbP0BeiyPT3uxWH7IE7FKPWvNcVK+2LUizMCKJ1B/+gyUF3+P18i7jh98zuCAAAAAElFTkSuQmCC;" vertex="1" parent="1">
          <mxGeometry x="160" y="230" width="100" height="100" as="geometry" />
        </mxCell>
        <mxCell id="W2GJoQNL9k2O-XemkFUo-18" value="" style="shape=image;verticalLabelPosition=bottom;labelBackgroundColor=default;verticalAlign=top;aspect=fixed;imageAspect=0;image=https://upload.wikimedia.org/wikipedia/commons/thumb/3/39/Kubernetes_logo_without_workmark.svg/2109px-Kubernetes_logo_without_workmark.svg.png;" vertex="1" parent="1">
          <mxGeometry x="300" y="119.66" width="89.1" height="86.5" as="geometry" />
        </mxCell>
        <mxCell id="W2GJoQNL9k2O-XemkFUo-21" value="" style="shape=image;verticalLabelPosition=bottom;labelBackgroundColor=default;verticalAlign=top;aspect=fixed;imageAspect=0;image=https://upload.wikimedia.org/wikipedia/commons/thumb/3/39/Kubernetes_logo_without_workmark.svg/2109px-Kubernetes_logo_without_workmark.svg.png;" vertex="1" parent="1">
          <mxGeometry x="296.22" y="250" width="96.65" height="93.84" as="geometry" />
        </mxCell>
        <mxCell id="W2GJoQNL9k2O-XemkFUo-22" value="" style="shape=image;verticalLabelPosition=bottom;labelBackgroundColor=default;verticalAlign=top;aspect=fixed;imageAspect=0;image=https://upload.wikimedia.org/wikipedia/commons/thumb/3/39/Kubernetes_logo_without_workmark.svg/2109px-Kubernetes_logo_without_workmark.svg.png;" vertex="1" parent="1">
          <mxGeometry x="302.87" y="400" width="90" height="87.38" as="geometry" />
        </mxCell>
        <mxCell id="W2GJoQNL9k2O-XemkFUo-25" value="Developer" style="text;html=1;strokeColor=none;fillColor=none;align=center;verticalAlign=middle;whiteSpace=wrap;rounded=0;" vertex="1" parent="1">
          <mxGeometry x="45" y="110" width="60" height="30" as="geometry" />
        </mxCell>
        <mxCell id="W2GJoQNL9k2O-XemkFUo-26" value="Github" style="text;html=1;strokeColor=none;fillColor=none;align=center;verticalAlign=middle;whiteSpace=wrap;rounded=0;" vertex="1" parent="1">
          <mxGeometry x="50" y="300" width="60" height="30" as="geometry" />
        </mxCell>
        <mxCell id="W2GJoQNL9k2O-XemkFUo-29" value="" style="shape=singleArrow;direction=south;whiteSpace=wrap;html=1;" vertex="1" parent="1">
          <mxGeometry x="70" y="156.5" width="20" height="60" as="geometry" />
        </mxCell>
        <mxCell id="W2GJoQNL9k2O-XemkFUo-40" value="Cluster-B" style="text;html=1;strokeColor=none;fillColor=none;align=center;verticalAlign=middle;whiteSpace=wrap;rounded=0;" vertex="1" parent="1">
          <mxGeometry x="314.55" y="360" width="60" height="30" as="geometry" />
        </mxCell>
        <mxCell id="W2GJoQNL9k2O-XemkFUo-42" value="Cluster-C" style="text;html=1;strokeColor=none;fillColor=none;align=center;verticalAlign=middle;whiteSpace=wrap;rounded=0;" vertex="1" parent="1">
          <mxGeometry x="314.55" y="500" width="60" height="30" as="geometry" />
        </mxCell>
        <mxCell id="W2GJoQNL9k2O-XemkFUo-43" value="Cluster-A" style="text;html=1;strokeColor=none;fillColor=none;align=center;verticalAlign=middle;whiteSpace=wrap;rounded=0;" vertex="1" parent="1">
          <mxGeometry x="314.55" y="216.5" width="60" height="30" as="geometry" />
        </mxCell>
        <mxCell id="W2GJoQNL9k2O-XemkFUo-44" value="" style="whiteSpace=wrap;html=1;aspect=fixed;" vertex="1" parent="1">
          <mxGeometry x="470" y="76.5" width="100" height="100" as="geometry" />
        </mxCell>
        <mxCell id="W2GJoQNL9k2O-XemkFUo-47" style="edgeStyle=orthogonalEdgeStyle;rounded=0;orthogonalLoop=1;jettySize=auto;html=1;exitX=1;exitY=0.5;exitDx=0;exitDy=0;" edge="1" parent="1" source="W2GJoQNL9k2O-XemkFUo-45">
          <mxGeometry relative="1" as="geometry">
            <mxPoint x="560" y="257" as="targetPoint" />
          </mxGeometry>
        </mxCell>
        <mxCell id="W2GJoQNL9k2O-XemkFUo-45" value="" style="whiteSpace=wrap;html=1;aspect=fixed;" vertex="1" parent="1">
          <mxGeometry x="470" y="240" width="100" height="100" as="geometry" />
        </mxCell>
        <mxCell id="W2GJoQNL9k2O-XemkFUo-46" value="" style="whiteSpace=wrap;html=1;aspect=fixed;" vertex="1" parent="1">
          <mxGeometry x="470" y="390" width="100" height="100" as="geometry" />
        </mxCell>
        <mxCell id="W2GJoQNL9k2O-XemkFUo-50" value="Api-server" style="text;html=1;strokeColor=none;fillColor=none;align=center;verticalAlign=middle;whiteSpace=wrap;rounded=0;" vertex="1" parent="1">
          <mxGeometry x="490" y="80" width="60" height="10" as="geometry" />
        </mxCell>
        <mxCell id="W2GJoQNL9k2O-XemkFUo-55" style="edgeStyle=orthogonalEdgeStyle;rounded=0;orthogonalLoop=1;jettySize=auto;html=1;exitX=0.5;exitY=1;exitDx=0;exitDy=0;" edge="1" parent="1">
          <mxGeometry relative="1" as="geometry">
            <mxPoint x="520" y="130" as="sourcePoint" />
            <mxPoint x="520" y="130" as="targetPoint" />
          </mxGeometry>
        </mxCell>
        <mxCell id="W2GJoQNL9k2O-XemkFUo-56" value="Controller" style="text;html=1;strokeColor=none;fillColor=none;align=center;verticalAlign=middle;whiteSpace=wrap;rounded=0;" vertex="1" parent="1">
          <mxGeometry x="490" y="100" width="60" height="20" as="geometry" />
        </mxCell>
        <mxCell id="W2GJoQNL9k2O-XemkFUo-57" value="Scheduler" style="text;html=1;strokeColor=none;fillColor=none;align=center;verticalAlign=middle;whiteSpace=wrap;rounded=0;" vertex="1" parent="1">
          <mxGeometry x="490" y="126.5" width="60" height="23.5" as="geometry" />
        </mxCell>
        <mxCell id="W2GJoQNL9k2O-XemkFUo-58" value="etcd" style="text;html=1;strokeColor=none;fillColor=none;align=center;verticalAlign=middle;whiteSpace=wrap;rounded=0;" vertex="1" parent="1">
          <mxGeometry x="490" y="150" width="60" height="20" as="geometry" />
        </mxCell>
        <mxCell id="W2GJoQNL9k2O-XemkFUo-59" value="Api-server" style="text;html=1;strokeColor=none;fillColor=none;align=center;verticalAlign=middle;whiteSpace=wrap;rounded=0;" vertex="1" parent="1">
          <mxGeometry x="490" y="250" width="60" height="10" as="geometry" />
        </mxCell>
        <mxCell id="W2GJoQNL9k2O-XemkFUo-60" value="Controller" style="text;html=1;strokeColor=none;fillColor=none;align=center;verticalAlign=middle;whiteSpace=wrap;rounded=0;" vertex="1" parent="1">
          <mxGeometry x="490" y="270" width="60" height="20" as="geometry" />
        </mxCell>
        <mxCell id="W2GJoQNL9k2O-XemkFUo-61" value="Scheduler" style="text;html=1;strokeColor=none;fillColor=none;align=center;verticalAlign=middle;whiteSpace=wrap;rounded=0;" vertex="1" parent="1">
          <mxGeometry x="490" y="288.25" width="60" height="23.5" as="geometry" />
        </mxCell>
        <mxCell id="W2GJoQNL9k2O-XemkFUo-62" value="etcd" style="text;html=1;strokeColor=none;fillColor=none;align=center;verticalAlign=middle;whiteSpace=wrap;rounded=0;" vertex="1" parent="1">
          <mxGeometry x="490" y="463.5" width="60" height="20" as="geometry" />
        </mxCell>
        <mxCell id="W2GJoQNL9k2O-XemkFUo-63" value="Api-server" style="text;html=1;strokeColor=none;fillColor=none;align=center;verticalAlign=middle;whiteSpace=wrap;rounded=0;" vertex="1" parent="1">
          <mxGeometry x="490" y="400" width="60" height="10" as="geometry" />
        </mxCell>
        <mxCell id="W2GJoQNL9k2O-XemkFUo-65" value="etcd" style="text;html=1;strokeColor=none;fillColor=none;align=center;verticalAlign=middle;whiteSpace=wrap;rounded=0;" vertex="1" parent="1">
          <mxGeometry x="490" y="310" width="60" height="20" as="geometry" />
        </mxCell>
        <mxCell id="W2GJoQNL9k2O-XemkFUo-66" value="Scheduler" style="text;html=1;strokeColor=none;fillColor=none;align=center;verticalAlign=middle;whiteSpace=wrap;rounded=0;" vertex="1" parent="1">
          <mxGeometry x="490" y="440" width="60" height="23.5" as="geometry" />
        </mxCell>
        <mxCell id="W2GJoQNL9k2O-XemkFUo-70" value="Controller" style="text;html=1;strokeColor=none;fillColor=none;align=center;verticalAlign=middle;whiteSpace=wrap;rounded=0;" vertex="1" parent="1">
          <mxGeometry x="490" y="410" width="60" height="30" as="geometry" />
        </mxCell>
        <mxCell id="W2GJoQNL9k2O-XemkFUo-82" style="edgeStyle=orthogonalEdgeStyle;rounded=0;orthogonalLoop=1;jettySize=auto;html=1;exitX=0.5;exitY=1;exitDx=0;exitDy=0;entryX=0.75;entryY=1;entryDx=0;entryDy=0;" edge="1" parent="1" source="W2GJoQNL9k2O-XemkFUo-70" target="W2GJoQNL9k2O-XemkFUo-70">
          <mxGeometry relative="1" as="geometry" />
        </mxCell>
        <mxCell id="W2GJoQNL9k2O-XemkFUo-84" value="" style="sketch=0;html=1;dashed=0;whitespace=wrap;fillColor=#2875E2;strokeColor=#ffffff;points=[[0.005,0.63,0],[0.1,0.2,0],[0.9,0.2,0],[0.5,0,0],[0.995,0.63,0],[0.72,0.99,0],[0.5,1,0],[0.28,0.99,0]];verticalLabelPosition=bottom;align=center;verticalAlign=top;shape=mxgraph.kubernetes.icon;prIcon=node" vertex="1" parent="1">
          <mxGeometry x="700" y="62.5" width="100" height="114" as="geometry" />
        </mxCell>
        <mxCell id="W2GJoQNL9k2O-XemkFUo-89" value="" style="sketch=0;html=1;dashed=0;whitespace=wrap;fillColor=#2875E2;strokeColor=#ffffff;points=[[0.005,0.63,0],[0.1,0.2,0],[0.9,0.2,0],[0.5,0,0],[0.995,0.63,0],[0.72,0.99,0],[0.5,1,0],[0.28,0.99,0]];verticalLabelPosition=bottom;align=center;verticalAlign=top;shape=mxgraph.kubernetes.icon;prIcon=node" vertex="1" parent="1">
          <mxGeometry x="700" y="240" width="100" height="98" as="geometry" />
        </mxCell>
        <mxCell id="W2GJoQNL9k2O-XemkFUo-90" value="" style="sketch=0;html=1;dashed=0;whitespace=wrap;fillColor=#2875E2;strokeColor=#ffffff;points=[[0.005,0.63,0],[0.1,0.2,0],[0.9,0.2,0],[0.5,0,0],[0.995,0.63,0],[0.72,0.99,0],[0.5,1,0],[0.28,0.99,0]];verticalLabelPosition=bottom;align=center;verticalAlign=top;shape=mxgraph.kubernetes.icon;prIcon=node" vertex="1" parent="1">
          <mxGeometry x="700" y="406.75" width="100" height="90" as="geometry" />
        </mxCell>
        <mxCell id="W2GJoQNL9k2O-XemkFUo-93" value="Master" style="text;html=1;strokeColor=none;fillColor=none;align=center;verticalAlign=middle;whiteSpace=wrap;rounded=0;" vertex="1" parent="1">
          <mxGeometry x="490" y="186.5" width="60" height="30" as="geometry" />
        </mxCell>
        <mxCell id="W2GJoQNL9k2O-XemkFUo-94" value="Master" style="text;html=1;strokeColor=none;fillColor=none;align=center;verticalAlign=middle;whiteSpace=wrap;rounded=0;" vertex="1" parent="1">
          <mxGeometry x="490" y="343.84000000000003" width="60" height="30" as="geometry" />
        </mxCell>
        <mxCell id="W2GJoQNL9k2O-XemkFUo-95" value="Master" style="text;html=1;strokeColor=none;fillColor=none;align=center;verticalAlign=middle;whiteSpace=wrap;rounded=0;" vertex="1" parent="1">
          <mxGeometry x="500" y="500" width="60" height="30" as="geometry" />
        </mxCell>
        <mxCell id="W2GJoQNL9k2O-XemkFUo-117" value="" style="endArrow=open;endFill=1;endSize=12;html=1;rounded=0;edgeStyle=orthogonalEdgeStyle;entryX=0;entryY=0.75;entryDx=0;entryDy=0;" edge="1" parent="1" target="W2GJoQNL9k2O-XemkFUo-18">
          <mxGeometry width="160" relative="1" as="geometry">
            <mxPoint x="240" y="220" as="sourcePoint" />
            <mxPoint x="410" y="290" as="targetPoint" />
            <Array as="points">
              <mxPoint x="250" y="185" />
            </Array>
          </mxGeometry>
        </mxCell>
        <mxCell id="W2GJoQNL9k2O-XemkFUo-120" value="" style="endArrow=open;endFill=1;endSize=12;html=1;rounded=0;edgeStyle=orthogonalEdgeStyle;entryX=0;entryY=0.5;entryDx=0;entryDy=0;" edge="1" parent="1" target="W2GJoQNL9k2O-XemkFUo-21">
          <mxGeometry width="160" relative="1" as="geometry">
            <mxPoint x="250" y="290" as="sourcePoint" />
            <mxPoint x="250" y="290" as="targetPoint" />
          </mxGeometry>
        </mxCell>
        <mxCell id="W2GJoQNL9k2O-XemkFUo-128" value="" style="endArrow=open;endFill=1;endSize=12;html=1;rounded=0;edgeStyle=orthogonalEdgeStyle;entryX=0;entryY=0.75;entryDx=0;entryDy=0;" edge="1" parent="1" target="W2GJoQNL9k2O-XemkFUo-22">
          <mxGeometry width="160" relative="1" as="geometry">
            <mxPoint x="219.53" y="330" as="sourcePoint" />
            <mxPoint x="259.53" y="480" as="targetPoint" />
          </mxGeometry>
        </mxCell>
        <mxCell id="W2GJoQNL9k2O-XemkFUo-129" value="" style="endArrow=open;endFill=1;endSize=12;html=1;rounded=0;edgeStyle=orthogonalEdgeStyle;entryX=-0.001;entryY=0.901;entryDx=0;entryDy=0;entryPerimeter=0;" edge="1" parent="1" target="W2GJoQNL9k2O-XemkFUo-44">
          <mxGeometry width="160" relative="1" as="geometry">
            <mxPoint x="400" y="160" as="sourcePoint" />
            <mxPoint x="410" y="290" as="targetPoint" />
          </mxGeometry>
        </mxCell>
        <mxCell id="W2GJoQNL9k2O-XemkFUo-130" value="" style="endArrow=open;endFill=1;endSize=12;html=1;rounded=0;edgeStyle=orthogonalEdgeStyle;exitX=1;exitY=0.5;exitDx=0;exitDy=0;entryX=0;entryY=0.612;entryDx=0;entryDy=0;entryPerimeter=0;" edge="1" parent="1" source="W2GJoQNL9k2O-XemkFUo-45" target="W2GJoQNL9k2O-XemkFUo-89">
          <mxGeometry width="160" relative="1" as="geometry">
            <mxPoint x="590" y="300" as="sourcePoint" />
            <mxPoint x="460" y="290" as="targetPoint" />
          </mxGeometry>
        </mxCell>
        <mxCell id="W2GJoQNL9k2O-XemkFUo-131" value="" style="endArrow=open;endFill=1;endSize=12;html=1;rounded=0;edgeStyle=orthogonalEdgeStyle;exitX=1;exitY=0.5;exitDx=0;exitDy=0;entryX=0;entryY=0.5;entryDx=0;entryDy=0;" edge="1" parent="1" source="W2GJoQNL9k2O-XemkFUo-22" target="W2GJoQNL9k2O-XemkFUo-46">
          <mxGeometry width="160" relative="1" as="geometry">
            <mxPoint x="250" y="290" as="sourcePoint" />
            <mxPoint x="410" y="290" as="targetPoint" />
          </mxGeometry>
        </mxCell>
        <mxCell id="W2GJoQNL9k2O-XemkFUo-134" value="" style="endArrow=open;endFill=1;endSize=12;html=1;rounded=0;edgeStyle=orthogonalEdgeStyle;" edge="1" parent="1" target="W2GJoQNL9k2O-XemkFUo-90">
          <mxGeometry width="160" relative="1" as="geometry">
            <mxPoint x="580" y="440" as="sourcePoint" />
            <mxPoint x="410" y="290" as="targetPoint" />
          </mxGeometry>
        </mxCell>
        <mxCell id="W2GJoQNL9k2O-XemkFUo-136" style="edgeStyle=orthogonalEdgeStyle;rounded=0;orthogonalLoop=1;jettySize=auto;html=1;entryX=0.005;entryY=0.63;entryDx=0;entryDy=0;entryPerimeter=0;" edge="1" parent="1" target="W2GJoQNL9k2O-XemkFUo-84">
          <mxGeometry relative="1" as="geometry">
            <mxPoint x="580" y="140" as="sourcePoint" />
          </mxGeometry>
        </mxCell>
        <mxCell id="W2GJoQNL9k2O-XemkFUo-137" value="Node" style="text;html=1;strokeColor=none;fillColor=none;align=center;verticalAlign=middle;whiteSpace=wrap;rounded=0;" vertex="1" parent="1">
          <mxGeometry x="720" y="176.16" width="60" height="30" as="geometry" />
        </mxCell>
        <mxCell id="W2GJoQNL9k2O-XemkFUo-139" value="Node" style="text;html=1;strokeColor=none;fillColor=none;align=center;verticalAlign=middle;whiteSpace=wrap;rounded=0;" vertex="1" parent="1">
          <mxGeometry x="720" y="343.84000000000003" width="60" height="30" as="geometry" />
        </mxCell>
        <mxCell id="W2GJoQNL9k2O-XemkFUo-140" value="Node" style="text;html=1;strokeColor=none;fillColor=none;align=center;verticalAlign=middle;whiteSpace=wrap;rounded=0;" vertex="1" parent="1">
          <mxGeometry x="720" y="510" width="60" height="30" as="geometry" />
        </mxCell>
      </root>
    </mxGraphModel>
  </diagram>
</mxfile>
